<svg aria-hidden="true" xmlns="http://www.w3.org/2000/svg" xmlns:xlink="http://www.w3.org/1999/xlink"><symbol viewBox="0 0 8 14" fill="none" id="arrow" xmlns="http://www.w3.org/2000/svg">
<path d="M6.5937 5.764e-05C6.88661 5.764e-05 7.17953 0.107976 7.41078 0.339226C7.85786 0.786309 7.85786 1.52631 7.41078 1.97339L2.78578 6.59839L7.41078 11.2234C7.85786 11.6705 7.85786 12.4105 7.41078 12.8576C6.9637 13.3046 6.2237 13.3046 5.77661 12.8576L0.33453 7.41548C-0.112553 6.96839 -0.112553 6.22839 0.33453 5.78131L5.77661 0.339226C6.00786 0.107976 6.30078 5.764e-05 6.5937 5.764e-05Z" fill="currentColor"/>
</symbol><symbol viewBox="0 0 15 15" fill="none" id="arrow-line" xmlns="http://www.w3.org/2000/svg">
<path d="M14.5647 6.66563L6.975 0.0783481C6.91674 0.0281249 6.84241 0 6.76406 0H4.98616C4.8375 0 4.7692 0.184821 4.8817 0.28125L11.917 6.38839H0.160714C0.0723214 6.38839 0 6.46071 0 6.54911V7.75447C0 7.84286 0.0723214 7.91518 0.160714 7.91518H11.915L4.87969 14.0223C4.76719 14.1208 4.83549 14.3036 4.98415 14.3036H6.82232C6.86049 14.3036 6.89866 14.2895 6.92679 14.2634L14.5647 7.63795C14.6343 7.57747 14.69 7.50278 14.7283 7.41891C14.7665 7.33504 14.7862 7.24395 14.7862 7.15179C14.7862 7.05962 14.7665 6.96853 14.7283 6.88466C14.69 6.8008 14.6343 6.7261 14.5647 6.66563Z" fill="currentColor"/>
</symbol><symbol viewBox="0 0 19 18" fill="none" id="arrow-right" xmlns="http://www.w3.org/2000/svg">
<path d="M11.2227 4.44751L15.9438 9.00001L11.2227 13.5525" stroke="currentColor" stroke-width="1.5" stroke-miterlimit="10" stroke-linecap="round" stroke-linejoin="round"/>
<path d="M1.16602 9L15.166 9" stroke="currentColor" stroke-width="1.5" stroke-miterlimit="10" stroke-linecap="round" stroke-linejoin="round"/>
</symbol><symbol viewBox="0 0 14 14" fill="none" id="arrow-rounded" xmlns="http://www.w3.org/2000/svg">
<path d="M0.834991 6.66829H12.5017M12.5017 6.66829L6.66833 0.834961M12.5017 6.66829L6.66833 12.5016" stroke="currentColor" stroke-width="1.67" stroke-linecap="round" stroke-linejoin="round"/>
</symbol><symbol viewBox="0 0 24 24" fill="none" id="facebook" xmlns="http://www.w3.org/2000/svg">
<path d="M2.5 12C2.5 7.52166 2.5 5.28249 3.89124 3.89124C5.28249 2.5 7.52166 2.5 12 2.5C16.4783 2.5 18.7175 2.5 20.1088 3.89124C21.5 5.28249 21.5 7.52166 21.5 12C21.5 16.4783 21.5 18.7175 20.1088 20.1088C18.7175 21.5 16.4783 21.5 12 21.5C7.52166 21.5 5.28249 21.5 3.89124 20.1088C2.5 18.7175 2.5 16.4783 2.5 12Z" stroke="currentColor" stroke-width="1.5" stroke-linejoin="round"/>
<path d="M16.9265 8.02637H13.9816C12.9378 8.02637 12.0894 8.86847 12.0817 9.91229L11.9964 21.4268M10.082 14.0017H14.8847" stroke="currentColor" stroke-width="1.5" stroke-linecap="round" stroke-linejoin="round"/>
</symbol><symbol viewBox="0 0 24 24" fill="none" id="instagram" xmlns="http://www.w3.org/2000/svg">
<path d="M2.5 12C2.5 7.52166 2.5 5.28249 3.89124 3.89124C5.28249 2.5 7.52166 2.5 12 2.5C16.4783 2.5 18.7175 2.5 20.1088 3.89124C21.5 5.28249 21.5 7.52166 21.5 12C21.5 16.4783 21.5 18.7175 20.1088 20.1088C18.7175 21.5 16.4783 21.5 12 21.5C7.52166 21.5 5.28249 21.5 3.89124 20.1088C2.5 18.7175 2.5 16.4783 2.5 12Z" stroke="currentColor" stroke-width="1.5" stroke-linejoin="round"/>
<path d="M16.5 12C16.5 14.4853 14.4853 16.5 12 16.5C9.51472 16.5 7.5 14.4853 7.5 12C7.5 9.51472 9.51472 7.5 12 7.5C14.4853 7.5 16.5 9.51472 16.5 12Z" stroke="currentColor" stroke-width="1.5"/>
<path d="M17.5108 6.5H17.4988" stroke="currentColor" stroke-width="2" stroke-linecap="round" stroke-linejoin="round"/>
</symbol><symbol viewBox="0 0 24 24" fill="none" id="telegram" xmlns="http://www.w3.org/2000/svg">
<path d="M11.9854 15.4083L15.2268 19.0936C16.4277 20.4589 17.0282 21.1416 17.6567 20.9754C18.2852 20.8092 18.5008 19.9108 18.9318 18.1138L21.3229 8.1459C21.9868 5.37832 22.3187 3.99454 21.5808 3.312C20.843 2.62947 19.564 3.13725 17.0061 4.15282L5.13876 8.86449C3.09293 9.67674 2.07001 10.0829 2.00507 10.7808C1.99842 10.8522 1.99831 10.9241 2.00474 10.9955C2.06754 11.6937 3.08921 12.1033 5.13255 12.9223C6.05838 13.2934 6.5213 13.479 6.8532 13.8344C6.89052 13.8743 6.9264 13.9157 6.96078 13.9584C7.26658 14.3384 7.39709 14.8371 7.65808 15.8344L8.14653 17.701C8.4005 18.6715 8.52749 19.1568 8.86008 19.223C9.19267 19.2891 9.48225 18.8867 10.0614 18.0819L11.9854 15.4083ZM11.9854 15.4083L11.6676 15.0771C11.3059 14.7001 11.1251 14.5117 11.1251 14.2775C11.1251 14.0433 11.3059 13.8548 11.6676 13.4778L15.2406 9.75409" stroke="currentColor" stroke-width="1.5" stroke-linecap="round" stroke-linejoin="round"/>
</symbol></svg>