<svg width="25" height="11" viewBox="0 0 25 11" fill="none" xmlns="http://www.w3.org/2000/svg">
<path fill-rule="evenodd" clip-rule="evenodd" d="M4.44921 1.34316C4.16382 1.69506 3.70721 1.97261 3.2506 1.93296C3.19353 1.45715 3.41707 0.95161 3.67867 0.639363C3.96406 0.277553 4.46348 0.0198252 4.86777 0C4.91533 0.49563 4.72983 0.981348 4.44921 1.34316ZM4.86297 2.02712C4.46071 2.003 4.09366 2.15319 3.79718 2.2745C3.60639 2.35256 3.44483 2.41867 3.32191 2.41867C3.18397 2.41867 3.01574 2.34903 2.82685 2.27084L2.82685 2.27084C2.57935 2.16838 2.29638 2.05124 1.99964 2.05686C1.31948 2.06677 0.686883 2.46823 0.339669 3.1076C-0.373786 4.38632 0.15417 6.27963 0.843844 7.32045C1.18155 7.83591 1.58584 8.40092 2.11855 8.3811C2.35291 8.37188 2.5215 8.29734 2.69597 8.22019C2.89683 8.13138 3.10549 8.03911 3.43131 8.03911C3.74582 8.03911 3.94536 8.12897 4.1369 8.21523C4.31903 8.29725 4.49393 8.37602 4.75358 8.37119C5.30532 8.36127 5.65253 7.85573 5.99023 7.34028C6.35466 6.78706 6.51481 6.24714 6.53912 6.1652L6.54197 6.15572C6.54139 6.15511 6.53689 6.15297 6.52894 6.14918C6.40712 6.09106 5.47596 5.64686 5.46703 4.45571C5.45807 3.45591 6.2056 2.94935 6.32327 2.86961L6.32329 2.8696C6.33044 2.86476 6.33527 2.86149 6.33745 2.85978C5.86181 2.12625 5.11982 2.04695 4.86297 2.02712ZM8.68238 8.31667V0.589797H11.4649C12.9013 0.589797 13.9049 1.62071 13.9049 3.12742C13.9049 4.63414 12.8822 5.67496 11.4268 5.67496H9.83342V8.31667H8.68238ZM9.83332 1.60088H11.1603C12.1592 1.60088 12.7299 2.15599 12.7299 3.13238C12.7299 4.10877 12.1592 4.66883 11.1556 4.66883H9.83332V1.60088ZM17.7053 7.38984C17.4009 7.99451 16.7302 8.37614 16.0072 8.37614C14.9371 8.37614 14.1903 7.712 14.1903 6.71083C14.1903 5.71957 14.9133 5.1496 16.2498 5.06534L17.6862 4.97612V4.54988C17.6862 3.92043 17.2915 3.57845 16.5875 3.57845C16.0072 3.57845 15.5839 3.8907 15.4983 4.3665H14.4614C14.4947 3.36533 15.3984 2.63675 16.6208 2.63675C17.9383 2.63675 18.7945 3.35542 18.7945 4.47058V8.31667H17.729V7.38984H17.7053ZM16.3163 7.45923C15.7027 7.45923 15.3127 7.15194 15.3127 6.68109C15.3127 6.19538 15.6885 5.91287 16.4067 5.86826L17.6861 5.784V6.22016C17.6861 6.94378 17.0964 7.45923 16.3163 7.45923ZM22.3284 8.61901C21.867 9.97208 21.3391 10.4181 20.2166 10.4181C20.131 10.4181 19.8456 10.4082 19.779 10.3884V9.46158C19.8503 9.47149 20.0263 9.4814 20.1167 9.4814C20.6256 9.4814 20.911 9.25837 21.087 8.67848L21.1916 8.3365L19.2415 2.7111H20.4449L21.8004 7.27585H21.8242L23.1798 2.7111H24.3499L22.3284 8.61901Z" fill="#1B2936"/>
</svg>
