<svg width="15" height="15" viewBox="0 0 15 15" fill="none" xmlns="http://www.w3.org/2000/svg">
<path d="M14.5647 6.66563L6.975 0.0783481C6.91674 0.0281249 6.84241 0 6.76406 0H4.98616C4.8375 0 4.7692 0.184821 4.8817 0.28125L11.917 6.38839H0.160714C0.0723214 6.38839 0 6.46071 0 6.54911V7.75447C0 7.84286 0.0723214 7.91518 0.160714 7.91518H11.915L4.87969 14.0223C4.76719 14.1208 4.83549 14.3036 4.98415 14.3036H6.82232C6.86049 14.3036 6.89866 14.2895 6.92679 14.2634L14.5647 7.63795C14.6343 7.57747 14.69 7.50278 14.7283 7.41891C14.7665 7.33504 14.7862 7.24395 14.7862 7.15179C14.7862 7.05962 14.7665 6.96853 14.7283 6.88466C14.69 6.8008 14.6343 6.7261 14.5647 6.66563Z" fill="#1B2936"/>
</svg>
