<svg width="32" height="32" viewBox="0 0 32 32" fill="none" xmlns="http://www.w3.org/2000/svg">
<g clip-path="url(#clip0_748_8132)">
<path d="M16 32C24.8366 32 32 24.8366 32 16C32 7.16344 24.8366 0 16 0C7.16344 0 0 7.16344 0 16C0 24.8366 7.16344 32 16 32Z" fill="url(#paint0_linear_748_8132)"/>
<path fill-rule="evenodd" clip-rule="evenodd" d="M7.24254 15.8312C11.9069 13.799 15.0172 12.4593 16.5734 11.812C21.0168 9.96384 21.9401 9.64279 22.5418 9.63219C22.6742 9.62986 22.9701 9.66266 23.1618 9.81821C23.3237 9.94956 23.3682 10.127 23.3896 10.2515C23.4109 10.376 23.4374 10.6597 23.4163 10.8814C23.1755 13.4114 22.1336 19.5509 21.6036 22.3846C21.3793 23.5836 20.9377 23.9856 20.5101 24.0249C19.581 24.1104 18.8754 23.4109 17.9755 22.821C16.5673 21.8979 15.7717 21.3232 14.4048 20.4225C12.8251 19.3815 13.8492 18.8093 14.7495 17.8743C14.9851 17.6296 19.0789 13.9059 19.1582 13.5681C19.1681 13.5258 19.1773 13.3684 19.0837 13.2852C18.9902 13.2021 18.8521 13.2305 18.7524 13.2531C18.6112 13.2852 16.3616 14.7721 12.0035 17.7139C11.365 18.1523 10.7866 18.366 10.2684 18.3548C9.69712 18.3424 8.5982 18.0318 7.78127 17.7662C6.77927 17.4405 5.9829 17.2683 6.05224 16.7152C6.08836 16.427 6.48513 16.1324 7.24254 15.8312Z" fill="white"/>
</g>
<defs>
<linearGradient id="paint0_linear_748_8132" x1="16" y1="0" x2="16" y2="31.7627" gradientUnits="userSpaceOnUse">
<stop stop-color="#2AABEE"/>
<stop offset="1" stop-color="#229ED9"/>
</linearGradient>
<clipPath id="clip0_748_8132">
<rect width="32" height="32" fill="white"/>
</clipPath>
</defs>
</svg>
