<svg width="149" height="33" viewBox="0 0 149 33" fill="none" xmlns="http://www.w3.org/2000/svg">
<path fill-rule="evenodd" clip-rule="evenodd" d="M9.1815 0.261719L0 16.1662L1.53645 18.8323L12.2627 0.261719H9.1815Z" fill="#1E2F3D"/>
<path fill-rule="evenodd" clip-rule="evenodd" d="M2.79102 20.9958L14.7631 0.261719H17.8401L4.32757 23.6617L2.79102 20.9958Z" fill="#1E2F3D"/>
<path fill-rule="evenodd" clip-rule="evenodd" d="M5.57617 25.8294L20.3388 0.261719H27.4813L28.8849 2.69094H22.0165L8.65333 25.8335L12.2204 32.0127H9.14747L5.57617 25.8294Z" fill="#1E2F3D"/>
<path fill-rule="evenodd" clip-rule="evenodd" d="M14.7213 32.0125L11.1543 25.8333L23.2716 4.8501H30.1318L31.6724 7.52031H24.8039L14.2314 25.8333L17.7985 32.0125H14.7213Z" fill="#1E2F3D"/>
<path fill-rule="evenodd" clip-rule="evenodd" d="M20.2976 32.0125H23.3788L19.8117 25.8334L27.5937 12.354H34.4622L32.9216 9.67969H26.0573L16.7305 25.8334L20.2976 32.0125Z" fill="#1E2F3D"/>
<path fill-rule="evenodd" clip-rule="evenodd" d="M25.8796 32.0124H27.4825L28.2175 30.7334L25.3897 25.8332L30.3853 17.1834H36.0411L36.6474 16.1369L35.7089 14.5132H28.8487L22.3125 25.8332L25.8796 32.0124Z" fill="#1E2F3D"/>
<path fill-rule="evenodd" clip-rule="evenodd" d="M29.4663 28.5699L34.7942 19.3428H31.6382L27.8926 25.8374L29.4663 28.5699Z" fill="#1E2F3D"/>
<path fill-rule="evenodd" clip-rule="evenodd" d="M141.393 24.0852C139.341 24.0562 137.481 23.3129 136.027 21.8553C134.649 20.4767 133.797 18.5748 133.797 16.4735V6.70656H138.162V16.4735C138.162 18.2633 139.611 19.7167 141.401 19.725C143.137 19.7167 144.561 18.3505 144.636 16.6188V6.70656H149V24.0894C149 28.2919 145.595 31.697 141.397 31.7012H137.917V27.3368H141.388C143.182 27.3368 144.64 25.8833 144.64 24.0852V23.3585C143.623 23.8402 142.526 24.0811 141.401 24.0852H141.393ZM121.356 18.5664H119.591V25.63H115.534V18.5664H113.736L110.115 25.63H105.559L110.223 16.5358L105.182 6.69824H109.729L113.753 14.5467H115.534V6.69824H119.591V14.5467H121.373L125.397 6.69824H129.948L124.886 16.569L129.533 25.6258H124.981L121.36 18.5622L121.356 18.5664Z" fill="#1E2F3D"/>
<path d="M99.0231 17.0881C100.56 15.9628 101.324 14.3432 101.324 12.7071V12.0759C101.324 10.4356 100.555 8.8202 99.0231 7.69484C97.8396 6.82694 96.2076 6.26221 94.1438 6.26221H92.7568C90.83 6.31204 89.0942 7.11344 87.8235 8.38414C86.5112 9.69637 85.6974 11.5111 85.6974 13.5168C85.6974 13.9529 85.6891 18.6038 85.7057 18.6038C85.7057 20.6095 86.5196 22.4243 87.8318 23.7365C89.1274 25.0321 91.4446 25.8335 93.4295 25.8584H100.281V21.8055H92.9603C92.0758 21.8055 91.2744 21.4442 90.6972 20.867C90.0577 20.2275 89.7587 19.426 89.7587 18.5291H94.1354C96.1952 18.5249 97.8313 17.9602 99.0148 17.0923L99.0231 17.0881ZM89.7587 13.5127C89.7587 12.6282 90.1158 11.8267 90.6972 11.2495C91.2329 10.7138 91.9554 10.3692 92.761 10.3193H94.1479C95.2816 10.3193 96.1038 10.5727 96.6312 10.9589C97.0672 11.2786 97.2832 11.6897 97.2832 12.0759V12.7071C97.2832 13.0933 97.0672 13.5044 96.6312 13.8241C96.1038 14.2103 95.2816 14.4636 94.1479 14.4636H89.771L89.7587 13.5127Z" fill="#1E2F3D"/>
<path d="M93.521 25.8582C93.4919 25.8582 93.4629 25.8582 93.4338 25.854H92.9688H93.521V25.8582Z" fill="#1E2F3D"/>
<path d="M79.5109 17.0881C81.0474 15.9628 81.8115 14.3432 81.8115 12.7071V12.0759C81.8115 10.4356 81.0433 8.8202 79.5109 7.69484C78.3274 6.82694 76.6955 6.26221 74.6316 6.26221H73.2447C71.3179 6.31204 69.582 7.11344 68.3113 8.38414C66.9991 9.69637 66.1852 11.5111 66.1852 13.5168C66.1852 13.9529 66.1769 18.6038 66.1977 18.6038C66.1977 20.6095 67.0116 22.4243 68.3238 23.7365C69.6194 25.0321 71.9366 25.8335 73.9215 25.8584H80.7734V21.8055H73.4523C72.5678 21.8055 71.7663 21.4442 71.1891 20.867C70.5496 20.2275 70.2507 19.426 70.2507 18.5291H74.6274C76.6872 18.5249 78.3233 17.9602 79.5068 17.0923L79.5109 17.0881ZM70.2465 13.5127C70.2465 12.6282 70.6036 11.8267 71.185 11.2495C71.7207 10.7138 72.4432 10.3692 73.2489 10.3193H74.6358C75.7736 10.3193 76.5916 10.5727 77.119 10.9589C77.5551 11.2786 77.771 11.6897 77.771 12.0759V12.7071C77.771 13.0933 77.5551 13.5044 77.119 13.8241C76.5916 14.2103 75.7694 14.4636 74.6358 14.4636H70.2589L70.2465 13.5127Z" fill="#1E2F3D"/>
<path d="M74.0093 25.8582C73.9802 25.8582 73.9511 25.8582 73.9221 25.854H73.457H74.0093V25.8582Z" fill="#1E2F3D"/>
<path fill-rule="evenodd" clip-rule="evenodd" d="M60.1876 8.84511C58.863 7.52043 57.0317 6.69824 55.0052 6.69824H50.5494V0H46.293V25.6383H54.9969C57.0192 25.6383 58.8506 24.8161 60.1794 23.4914C61.5041 22.1667 62.3263 20.3354 62.3263 18.309H62.3305V14.0234C62.3305 12.0011 61.5123 10.1698 60.1835 8.84096L60.1876 8.84511ZM58.2692 18.309C58.2692 19.2101 57.9037 20.0282 57.3141 20.622C56.7285 21.2075 55.9229 21.5729 55.0301 21.577H50.5536V10.7554H55.0093C55.9104 10.7554 56.7285 11.1249 57.3224 11.7145C57.912 12.3042 58.2816 13.1223 58.2816 14.0276V18.3131L58.2692 18.309Z" fill="#1E2F3D"/>
<path d="M110.506 31.7011V27.3574H111.436V29.1264H111.814L113.193 27.3574H114.227L112.52 29.4088L114.289 31.6969H113.197L111.814 29.8033H111.436V31.6969H110.506V31.7011Z" fill="#1E2F3D"/>
<path d="M114.937 31.7758H114.812C114.762 31.7758 114.721 31.7675 114.688 31.7591V30.9286C114.688 30.9286 114.729 30.9328 114.779 30.9328C114.862 30.9328 114.937 30.9204 115.003 30.8913C115.07 30.8622 115.124 30.804 115.169 30.7127C115.215 30.6255 115.252 30.4926 115.281 30.3224C115.31 30.1521 115.331 29.9237 115.348 29.6455C115.364 29.3673 115.369 29.0185 115.369 28.5991V27.3574H118.533V31.7011H117.603V28.1339H116.249V28.7237C116.249 29.2469 116.232 29.6912 116.195 30.0525C116.158 30.4138 116.104 30.7085 116.029 30.9369C115.958 31.1653 115.867 31.3397 115.763 31.456C115.659 31.5764 115.539 31.6595 115.398 31.7052C115.256 31.7509 115.103 31.7716 114.933 31.7716L114.937 31.7758Z" fill="#1E2F3D"/>
<path d="M119.586 31.7011V27.3574H120.516V31.7011H119.586Z" fill="#1E2F3D"/>
<path d="M121.572 31.7011V27.3574H122.502V29.0807H124.363V27.3574H125.293V31.7011H124.363V29.8532H122.502V31.7011H121.572Z" fill="#1E2F3D"/>
<path d="M126.348 31.7011V27.3574H127.278V31.7011H126.348Z" fill="#1E2F3D"/>
<path d="M128.332 31.7011V27.3574H129.262V29.0807H131.123V27.3574H132.053V31.7011H131.123V29.8532H129.262V31.7011H128.332Z" fill="#1E2F3D"/>
<path d="M133.049 31.7011V27.3574H135.902V28.1339H133.979V31.7011H133.049Z" fill="#1E2F3D"/>
</svg>
