<svg width="7" height="12" viewBox="0 0 7 12" fill="none" xmlns="http://www.w3.org/2000/svg">
<path d="M1.04883 6.55151C0.675478 6.1778 0.651944 5.5837 0.978516 5.18237L1.04883 5.10425L2.68945 3.47241L5.36621 0.795653C5.39714 0.764857 5.42272 0.755204 5.44238 0.751708C5.46624 0.747548 5.49715 0.749567 5.52832 0.76245C5.55948 0.775336 5.58199 0.795721 5.5957 0.815184C5.607 0.831267 5.61914 0.85569 5.61914 0.899169L5.61914 10.7654C5.61914 10.8052 5.6084 10.8288 5.59668 10.8455C5.58255 10.8654 5.55854 10.8857 5.52637 10.8992C5.49427 10.9125 5.46366 10.9148 5.44043 10.9109C5.42151 10.9077 5.39654 10.8991 5.36621 10.8689L1.04883 6.55151Z" fill="#1B2936" stroke="#1B2936" stroke-width="1.5"/>
</svg>
