<svg width="16" height="16" viewBox="0 0 16 16" fill="none" xmlns="http://www.w3.org/2000/svg">
<path d="M5.3335 3.8335C5.06016 3.8335 4.8335 3.60683 4.8335 3.3335V1.3335C4.8335 1.06016 5.06016 0.833496 5.3335 0.833496C5.60683 0.833496 5.8335 1.06016 5.8335 1.3335V3.3335C5.8335 3.60683 5.60683 3.8335 5.3335 3.8335Z" fill="#B4B6BD"/>
<path d="M10.6665 3.8335C10.3932 3.8335 10.1665 3.60683 10.1665 3.3335V1.3335C10.1665 1.06016 10.3932 0.833496 10.6665 0.833496C10.9398 0.833496 11.1665 1.06016 11.1665 1.3335V3.3335C11.1665 3.60683 10.9398 3.8335 10.6665 3.8335Z" fill="#B4B6BD"/>
<path d="M12.1333 14.7667C10.68 14.7667 9.5 13.5867 9.5 12.1333C9.5 10.68 10.68 9.5 12.1333 9.5C13.5867 9.5 14.7667 10.68 14.7667 12.1333C14.7667 13.5867 13.5867 14.7667 12.1333 14.7667ZM12.1333 10.5C11.2333 10.5 10.5 11.2333 10.5 12.1333C10.5 13.0333 11.2333 13.7667 12.1333 13.7667C13.0333 13.7667 13.7667 13.0333 13.7667 12.1333C13.7667 11.2333 13.0333 10.5 12.1333 10.5Z" fill="#B4B6BD"/>
<path d="M14.6665 15.1665C14.5398 15.1665 14.4131 15.1198 14.3131 15.0198L13.6465 14.3531C13.4531 14.1598 13.4531 13.8398 13.6465 13.6465C13.8398 13.4531 14.1598 13.4531 14.3531 13.6465L15.0198 14.3131C15.2131 14.5065 15.2131 14.8265 15.0198 15.0198C14.9198 15.1198 14.7931 15.1665 14.6665 15.1665Z" fill="#B4B6BD"/>
<path d="M5.66667 9.66658C5.58 9.66658 5.49333 9.64659 5.41333 9.61326C5.32666 9.57992 5.25333 9.53324 5.19333 9.47324C5.16666 9.43991 5.13333 9.40658 5.11333 9.37325C5.08667 9.33325 5.06667 9.29325 5.05333 9.25325C5.03333 9.21325 5.02 9.17326 5.01334 9.13326C5.00667 9.08659 5 9.03992 5 8.99992C5 8.82658 5.07333 8.65325 5.19333 8.52659C5.25333 8.46659 5.32666 8.41991 5.41333 8.38657C5.65333 8.27991 5.95334 8.33992 6.14 8.52659C6.26 8.65325 6.33333 8.82658 6.33333 8.99992C6.33333 9.03992 6.32666 9.08659 6.32 9.13326C6.31333 9.17326 6.3 9.21325 6.28 9.25325C6.26667 9.29325 6.24667 9.33325 6.22 9.37325C6.19333 9.40658 6.16667 9.43991 6.14 9.47324C6.01334 9.59324 5.84 9.66658 5.66667 9.66658Z" fill="#B4B6BD"/>
<path d="M8.00016 9.66679C7.82683 9.66679 7.65349 9.59345 7.52682 9.47345C7.40682 9.34679 7.3335 9.18012 7.3335 9.00012C7.3335 8.91346 7.3535 8.82679 7.38683 8.74679C7.42016 8.66679 7.46682 8.59346 7.52682 8.5268C7.77349 8.28013 8.22017 8.28013 8.4735 8.5268C8.5935 8.65346 8.66683 8.82679 8.66683 9.00012C8.66683 9.04012 8.66016 9.0868 8.65349 9.13347C8.64683 9.17347 8.63349 9.21346 8.61349 9.25346C8.60016 9.29346 8.58016 9.33346 8.5535 9.37346C8.52683 9.40679 8.50017 9.44012 8.4735 9.47345C8.34683 9.59345 8.1735 9.66679 8.00016 9.66679Z" fill="#B4B6BD"/>
<path d="M5.66667 11.9998C5.49333 11.9998 5.32 11.9265 5.19333 11.8065C5.07333 11.6798 5 11.5065 5 11.3331C5 11.2465 5.02 11.1598 5.05333 11.0798C5.08667 10.9931 5.13333 10.9198 5.19333 10.8598C5.44 10.6131 5.89334 10.6131 6.14 10.8598C6.26 10.9865 6.33333 11.1598 6.33333 11.3331C6.33333 11.5065 6.26 11.6798 6.14 11.8065C6.01334 11.9265 5.84 11.9998 5.66667 11.9998Z" fill="#B4B6BD"/>
<path d="M13.6668 6.56006H2.3335C2.06016 6.56006 1.8335 6.33339 1.8335 6.06006C1.8335 5.78673 2.06016 5.56006 2.3335 5.56006H13.6668C13.9402 5.56006 14.1668 5.78673 14.1668 6.06006C14.1668 6.33339 13.9402 6.56006 13.6668 6.56006Z" fill="#B4B6BD"/>
<path d="M8.91333 15.1668H5.33333C2.9 15.1668 1.5 13.7668 1.5 11.3335V5.66683C1.5 3.2335 2.9 1.8335 5.33333 1.8335H10.6667C13.1 1.8335 14.5 3.2335 14.5 5.66683V8.66683C14.5 8.94016 14.2733 9.16683 14 9.16683C13.7267 9.16683 13.5 8.94016 13.5 8.66683V5.66683C13.5 3.76016 12.5733 2.8335 10.6667 2.8335H5.33333C3.42667 2.8335 2.5 3.76016 2.5 5.66683V11.3335C2.5 13.2402 3.42667 14.1668 5.33333 14.1668H8.91333C9.18666 14.1668 9.41333 14.3935 9.41333 14.6668C9.41333 14.9402 9.18666 15.1668 8.91333 15.1668Z" fill="#B4B6BD"/>
</svg>
