<svg width="16" height="16" viewBox="0 0 16 16" fill="none" xmlns="http://www.w3.org/2000/svg">
<path d="M8.00065 1.33325C4.32732 1.33325 1.33398 4.32659 1.33398 7.99992C1.33398 11.6733 4.32732 14.6666 8.00065 14.6666C11.674 14.6666 14.6673 11.6733 14.6673 7.99992C14.6673 4.32659 11.674 1.33325 8.00065 1.33325ZM10.9007 10.3799C10.8073 10.5399 10.6407 10.6266 10.4673 10.6266C10.3807 10.6266 10.294 10.6066 10.214 10.5533L8.14732 9.31992C7.63398 9.01325 7.25398 8.33992 7.25398 7.74658V5.01325C7.25398 4.73992 7.48065 4.51325 7.75398 4.51325C8.02732 4.51325 8.25398 4.73992 8.25398 5.01325V7.74658C8.25398 7.98658 8.45398 8.33992 8.66065 8.45992L10.7273 9.69325C10.9673 9.83325 11.0473 10.1399 10.9007 10.3799Z" fill="#1B2936"/>
</svg>
