<svg width="29" height="29" viewBox="0 0 29 29" fill="none" xmlns="http://www.w3.org/2000/svg">
<path d="M19.3333 3.625C20.9357 3.625 22.4724 4.26153 23.6054 5.39456C24.7385 6.5276 25.375 8.06432 25.375 9.66667V19.3333C25.375 20.9357 24.7385 22.4724 23.6054 23.6054C22.4724 24.7385 20.9357 25.375 19.3333 25.375H9.66667C8.06432 25.375 6.5276 24.7385 5.39456 23.6054C4.26153 22.4724 3.625 20.9357 3.625 19.3333V9.66667C3.625 8.06432 4.26153 6.5276 5.39456 5.39456C6.5276 4.26153 8.06432 3.625 9.66667 3.625H19.3333ZM14.5 9.66667C13.2181 9.66667 11.9887 10.1759 11.0823 11.0823C10.1759 11.9887 9.66667 13.2181 9.66667 14.5C9.66667 15.7819 10.1759 17.0113 11.0823 17.9177C11.9887 18.8241 13.2181 19.3333 14.5 19.3333C15.7819 19.3333 17.0113 18.8241 17.9177 17.9177C18.8241 17.0113 19.3333 15.7819 19.3333 14.5C19.3333 13.2181 18.8241 11.9887 17.9177 11.0823C17.0113 10.1759 15.7819 9.66667 14.5 9.66667ZM14.5 12.0833C15.1409 12.0833 15.7556 12.3379 16.2088 12.7912C16.6621 13.2444 16.9167 13.8591 16.9167 14.5C16.9167 15.1409 16.6621 15.7556 16.2088 16.2088C15.7556 16.6621 15.1409 16.9167 14.5 16.9167C13.8591 16.9167 13.2444 16.6621 12.7912 16.2088C12.3379 15.7556 12.0833 15.1409 12.0833 14.5C12.0833 13.8591 12.3379 13.2444 12.7912 12.7912C13.2444 12.3379 13.8591 12.0833 14.5 12.0833ZM19.9375 7.85417C19.617 7.85417 19.3097 7.98147 19.0831 8.20808C18.8565 8.43469 18.7292 8.74203 18.7292 9.0625C18.7292 9.38297 18.8565 9.69031 19.0831 9.91692C19.3097 10.1435 19.617 10.2708 19.9375 10.2708C20.258 10.2708 20.5653 10.1435 20.7919 9.91692C21.0185 9.69031 21.1458 9.38297 21.1458 9.0625C21.1458 8.74203 21.0185 8.43469 20.7919 8.20808C20.5653 7.98147 20.258 7.85417 19.9375 7.85417Z" fill="#F9FAFB"/>
</svg>
