<svg width="149" height="33" viewBox="0 0 149 33" fill="none" xmlns="http://www.w3.org/2000/svg">
<path fill-rule="evenodd" clip-rule="evenodd" d="M9.1815 0.261566L0 16.166L1.53645 18.8321L12.2627 0.261566H9.1815Z" fill="#1E2F3D"/>
<path fill-rule="evenodd" clip-rule="evenodd" d="M2.79083 20.9954L14.7629 0.261414H17.8399L4.32739 23.6614L2.79083 20.9954Z" fill="#1E2F3D"/>
<path fill-rule="evenodd" clip-rule="evenodd" d="M5.57684 25.8291L20.3395 0.261414H27.4819L28.8856 2.69064H22.0171L8.654 25.8332L12.221 32.0124H9.14814L5.57684 25.8291Z" fill="#1E2F3D"/>
<path fill-rule="evenodd" clip-rule="evenodd" d="M14.7207 32.0124L11.1537 25.8332L23.271 4.84998H30.1312L31.6718 7.5202H24.8033L14.2307 25.8332L17.7979 32.0124H14.7207Z" fill="#1E2F3D"/>
<path fill-rule="evenodd" clip-rule="evenodd" d="M20.2977 32.0123H23.3789L19.8117 25.8331L27.5938 12.3537H34.4622L32.9216 9.67944H26.0573L16.7305 25.8331L20.2977 32.0123Z" fill="#1E2F3D"/>
<path fill-rule="evenodd" clip-rule="evenodd" d="M25.8794 32.0124H27.4823L28.2173 30.7333L25.3894 25.8332L30.385 17.1834H36.0409L36.6471 16.1369L35.7086 14.5132H28.8485L22.3123 25.8332L25.8794 32.0124Z" fill="#1E2F3D"/>
<path fill-rule="evenodd" clip-rule="evenodd" d="M29.4669 28.5699L34.7948 19.3428H31.6388L27.8932 25.8375L29.4669 28.5699Z" fill="#1E2F3D"/>
<path fill-rule="evenodd" clip-rule="evenodd" d="M141.392 24.0851C139.341 24.0561 137.481 23.3128 136.027 21.8552C134.649 20.4766 133.797 18.5747 133.797 16.4734V6.70645H138.162V16.4734C138.162 18.2632 139.611 19.7166 141.401 19.7249C143.136 19.7166 144.561 18.3504 144.636 16.6187V6.70645H149V24.0893C149 28.2917 145.595 31.6969 141.397 31.7011H137.917V27.3367H141.388C143.182 27.3367 144.64 25.8832 144.64 24.0851V23.3584C143.622 23.8401 142.526 24.081 141.401 24.0851H141.392ZM121.356 18.5663H119.591V25.6299H115.534V18.5663H113.736L110.115 25.6299H105.559L110.223 16.5357L105.181 6.69814H109.729L113.752 14.5466H115.534V6.69814H119.591V14.5466H121.373L125.396 6.69814H129.948L124.886 16.5689L129.532 25.6257H124.981L121.36 18.5621L121.356 18.5663Z" fill="#1E2F3D"/>
<path d="M99.024 17.0881C100.56 15.9627 101.325 14.3432 101.325 12.7071V12.0759C101.325 10.4356 100.556 8.82017 99.024 7.69481C97.8405 6.82691 96.2085 6.26218 94.1446 6.26218H92.7577C90.8309 6.31201 89.095 7.11341 87.8243 8.38411C86.5121 9.69634 85.6982 11.5111 85.6982 13.5168C85.6982 13.9528 85.6899 18.6038 85.7066 18.6038C85.7066 20.6095 86.5204 22.4242 87.8326 23.7365C89.1283 25.0321 91.4454 25.8335 93.4304 25.8584H100.282V21.8054H92.9612C92.0767 21.8054 91.2752 21.4441 90.698 20.8669C90.0585 20.2274 89.7595 19.426 89.7595 18.529H94.1363C96.196 18.5249 97.8321 17.9602 99.0156 17.0923L99.024 17.0881ZM89.7595 13.5126C89.7595 12.6281 90.1167 11.8267 90.698 11.2495C91.2337 10.7138 91.9563 10.3691 92.7619 10.3193H94.1488C95.2824 10.3193 96.1047 10.5726 96.632 10.9588C97.0681 11.2786 97.284 11.6897 97.284 12.0759V12.7071C97.284 13.0933 97.0681 13.5043 96.632 13.8241C96.1047 14.2103 95.2824 14.4636 94.1488 14.4636H89.7719L89.7595 13.5126Z" fill="#1E2F3D"/>
<path d="M93.522 25.8583C93.4929 25.8583 93.4639 25.8583 93.4348 25.8541H92.9698H93.522V25.8583Z" fill="#1E2F3D"/>
<path d="M79.5103 17.0881C81.0468 15.9627 81.8109 14.3432 81.8109 12.7071V12.0759C81.8109 10.4356 81.0426 8.82017 79.5103 7.69481C78.3268 6.82691 76.6949 6.26218 74.631 6.26218H73.2441C71.3173 6.31201 69.5814 7.11341 68.3107 8.38411C66.9985 9.69634 66.1846 11.5111 66.1846 13.5168C66.1846 13.9528 66.1763 18.6038 66.1971 18.6038C66.1971 20.6095 67.011 22.4242 68.3232 23.7365C69.6188 25.0321 71.936 25.8335 73.9209 25.8584H80.7727V21.8054H73.4517C72.5672 21.8054 71.7657 21.4441 71.1885 20.8669C70.5489 20.2274 70.2501 19.426 70.2501 18.529H74.6268C76.6865 18.5249 78.3227 17.9602 79.5062 17.0923L79.5103 17.0881ZM70.2459 13.5126C70.2459 12.6281 70.603 11.8267 71.1844 11.2495C71.7201 10.7138 72.4426 10.3691 73.2482 10.3193H74.6352C75.773 10.3193 76.591 10.5726 77.1184 10.9588C77.5544 11.2786 77.7704 11.6897 77.7704 12.0759V12.7071C77.7704 13.0933 77.5544 13.5043 77.1184 13.8241C76.591 14.2103 75.7688 14.4636 74.6352 14.4636H70.2583L70.2459 13.5126Z" fill="#1E2F3D"/>
<path d="M74.008 25.8583C73.9789 25.8583 73.9499 25.8583 73.9208 25.8541H73.4557H74.008V25.8583Z" fill="#1E2F3D"/>
<path fill-rule="evenodd" clip-rule="evenodd" d="M60.1884 8.84511C58.8637 7.52043 57.0324 6.69824 55.0059 6.69824H50.5501V0H46.2937V25.6383H54.9976C57.0199 25.6383 58.8513 24.8161 60.1802 23.4914C61.5048 22.1667 62.327 20.3354 62.327 18.309H62.3312V14.0234C62.3312 12.0011 61.5131 10.1698 60.1842 8.84096L60.1884 8.84511ZM58.2699 18.309C58.2699 19.2101 57.9045 20.0282 57.3148 20.622C56.7293 21.2075 55.9237 21.5729 55.0308 21.577H50.5543V10.7554H55.0101C55.9112 10.7554 56.7293 11.1249 57.3231 11.7145C57.9128 12.3042 58.2824 13.1223 58.2824 14.0276V18.3131L58.2699 18.309Z" fill="#1E2F3D"/>
</svg>
