<svg width="49" height="16" viewBox="0 0 49 16" fill="none" xmlns="http://www.w3.org/2000/svg">
<g clip-path="url(#clip0_487_5407)">
<path d="M47.4742 9.77815L48.8335 10.68C48.3924 11.3266 47.3372 12.4361 45.5129 12.4361C43.2476 12.4361 41.5605 10.6919 41.5605 8.47291C41.5605 6.11167 43.2655 4.50977 45.3222 4.50977C47.3908 4.50977 48.4042 6.14719 48.7322 7.03119L48.911 7.48215L43.5815 9.67729C43.9868 10.4723 44.6188 10.8758 45.5129 10.8758C46.4072 10.8758 47.0271 10.4367 47.4742 9.77815ZM43.2953 8.34843L46.8543 6.877C46.6576 6.38462 46.0734 6.03462 45.3758 6.03462C44.4876 6.03462 43.2536 6.81777 43.2953 8.34843Z" fill="#FF302F"/>
<path d="M38.9883 0.469727H40.7051V12.0745H38.9883V0.469727Z" fill="#20B15A"/>
<path d="M36.2841 4.81829H37.9413V11.8666C37.9413 14.7914 36.2065 15.9958 34.1558 15.9958C32.2243 15.9958 31.0619 14.7025 30.6266 13.6524L32.1468 13.0234C32.421 13.6701 33.0827 14.4355 34.1558 14.4355C35.4732 14.4355 36.2841 13.6227 36.2841 12.1039V11.5344H36.2244C35.8309 12.009 35.0798 12.4361 34.126 12.4361C32.1348 12.4361 30.3105 10.7096 30.3105 8.48486C30.3105 6.2481 32.1348 4.50391 34.126 4.50391C35.0739 4.50391 35.8309 4.92514 36.2244 5.38791H36.2841V4.81829ZM36.4032 8.48486C36.4032 7.08467 35.4673 6.06419 34.275 6.06419C33.0707 6.06419 32.0573 7.08467 32.0573 8.48486C32.0573 9.86714 33.0707 10.8698 34.275 10.8698C35.4674 10.8758 36.4033 9.86714 36.4033 8.48486" fill="#3686F7"/>
<path d="M20.8844 8.45538C20.8844 10.7396 19.096 12.4185 16.9022 12.4185C14.7084 12.4185 12.9199 10.7337 12.9199 8.45538C12.9199 6.15938 14.7084 4.48633 16.9022 4.48633C19.096 4.48633 20.8844 6.15938 20.8844 8.45538ZM19.1437 8.45538C19.1437 7.03157 18.1063 6.05252 16.9022 6.05252C15.698 6.05252 14.6607 7.03157 14.6607 8.45538C14.6607 9.86738 15.698 10.8582 16.9022 10.8582C18.1064 10.8582 19.1437 9.86738 19.1437 8.45538Z" fill="#FF302F"/>
<path d="M29.5817 8.47291C29.5817 10.7571 27.7932 12.4361 25.5994 12.4361C23.4056 12.4361 21.6172 10.757 21.6172 8.47291C21.6172 6.17691 23.4056 4.50977 25.5994 4.50977C27.7932 4.50977 29.5817 6.171 29.5817 8.47291ZM27.8349 8.47291C27.8349 7.0491 26.7977 6.07005 25.5934 6.07005C24.3891 6.07005 23.3519 7.0491 23.3519 8.47291C23.3519 9.88491 24.3892 10.8758 25.5934 10.8758C26.8036 10.8758 27.8349 9.879 27.8349 8.47291Z" fill="#FFBA40"/>
<path d="M6.37549 10.6977C3.8776 10.6977 1.92232 8.69241 1.92232 6.20651C1.92232 3.7207 3.8776 1.71537 6.37549 1.71537C7.72281 1.71537 8.70638 2.24337 9.43368 2.91975L10.632 1.72727C9.61856 0.760224 8.26531 0.0244141 6.37549 0.0244141C2.95365 0.0245093 0.0742188 2.80118 0.0742188 6.20651C0.0742188 9.61184 2.95365 12.3886 6.37549 12.3886C8.22359 12.3886 9.61856 11.7835 10.7095 10.6562C11.8302 9.54079 12.176 7.97451 12.176 6.70489C12.176 6.30737 12.1283 5.89803 12.0746 5.59546H6.37549V7.24479H10.4352C10.316 8.27718 9.98815 8.98318 9.50526 9.46365C8.92103 10.0511 7.99707 10.6977 6.37549 10.6977Z" fill="#3686F7"/>
</g>
<defs>
<clipPath id="clip0_487_5407">
<rect width="49" height="16" fill="white"/>
</clipPath>
</defs>
</svg>
