<svg width="34" height="34" viewBox="0 0 34 34" fill="none" xmlns="http://www.w3.org/2000/svg">
<path d="M16.6667 0C7.48333 0 0 7.48333 0 16.6667C0 25.85 7.48333 33.3333 16.6667 33.3333C25.85 33.3333 33.3333 25.85 33.3333 16.6667C33.3333 7.48333 25.85 0 16.6667 0ZM22.2667 20.5C22.75 20.9833 22.75 21.7833 22.2667 22.2667C22.0167 22.5167 21.7 22.6333 21.3833 22.6333C21.0667 22.6333 20.75 22.5167 20.5 22.2667L16.6667 18.4333L12.8333 22.2667C12.5833 22.5167 12.2667 22.6333 11.95 22.6333C11.6333 22.6333 11.3167 22.5167 11.0667 22.2667C10.5833 21.7833 10.5833 20.9833 11.0667 20.5L14.9 16.6667L11.0667 12.8333C10.5833 12.35 10.5833 11.55 11.0667 11.0667C11.55 10.5833 12.35 10.5833 12.8333 11.0667L16.6667 14.9L20.5 11.0667C20.9833 10.5833 21.7833 10.5833 22.2667 11.0667C22.75 11.55 22.75 12.35 22.2667 12.8333L18.4333 16.6667L22.2667 20.5Z" fill="#323E4A"/>
</svg>
