<svg width="112" height="24" viewBox="0 0 112 24" fill="none" xmlns="http://www.w3.org/2000/svg">
<path fill-rule="evenodd" clip-rule="evenodd" d="M6.90153 0.196289L0 12.1198L1.15494 14.1185L9.21765 0.196289H6.90153Z" fill="#1E2F3D"/>
<path fill-rule="evenodd" clip-rule="evenodd" d="M2.09766 15.7405L11.0968 0.196289H13.4098L3.2526 17.7391L2.09766 15.7405Z" fill="#1E2F3D"/>
<path fill-rule="evenodd" clip-rule="evenodd" d="M4.19336 19.3642L15.2901 0.196289H20.659L21.7141 2.01746H16.5512L6.50635 19.3673L9.18769 23.9998H6.8778L4.19336 19.3642Z" fill="#1E2F3D"/>
<path fill-rule="evenodd" clip-rule="evenodd" d="M11.0661 23.9997L8.38477 19.3672L17.4932 3.63623H22.6498L23.8079 5.63807H18.645L10.6978 19.3672L13.3791 23.9997H11.0661Z" fill="#1E2F3D"/>
<path fill-rule="evenodd" clip-rule="evenodd" d="M15.2575 23.9996H17.5736L14.8923 19.3672L20.7419 9.26172H25.9048L24.7467 7.25684H19.587L12.5762 19.3672L15.2575 23.9996Z" fill="#1E2F3D"/>
<path fill-rule="evenodd" clip-rule="evenodd" d="M19.4528 23.9999H20.6577L21.2102 23.041L19.0845 19.3674L22.8396 12.8827H27.091L27.5468 12.0982L26.8413 10.8809H21.6846L16.7715 19.3674L19.4528 23.9999Z" fill="#1E2F3D"/>
<path fill-rule="evenodd" clip-rule="evenodd" d="M22.1498 21.419L26.1547 14.5015H23.7824L20.9668 19.3705L22.1498 21.419Z" fill="#1E2F3D"/>
<path fill-rule="evenodd" clip-rule="evenodd" d="M106.282 18.0569C104.74 18.0351 103.341 17.4779 102.249 16.3851C101.212 15.3516 100.572 13.9257 100.572 12.3505V5.02821H103.853V12.3505C103.853 13.6922 104.942 14.7818 106.288 14.788C107.593 14.7818 108.663 13.7576 108.719 12.4594V5.02821H112V18.06C112 21.2106 109.441 23.7634 106.285 23.7665H103.669V20.4946H106.278C107.627 20.4946 108.723 19.4049 108.723 18.0569V17.5121C107.958 17.8732 107.134 18.0538 106.288 18.0569H106.282ZM91.2206 13.9194H89.894V19.215H86.8443V13.9194H85.4927L82.7708 19.215H79.3466L82.852 12.3971L79.0625 5.02197H82.4805L85.5052 10.9059H86.8443V5.02197H89.894V10.9059H91.233L94.2577 5.02197H97.6789L93.8738 12.4221L97.3667 19.2119H93.9456L91.2237 13.9163L91.2206 13.9194Z" fill="#1E2F3D"/>
<path d="M74.4343 12.811C75.5892 11.9673 76.1636 10.7531 76.1636 9.52652V9.0533C76.1636 7.82359 75.5861 6.61254 74.4343 5.76886C73.5447 5.1182 72.318 4.69482 70.7666 4.69482H69.724C68.2757 4.73218 66.9709 5.33299 66.0158 6.28563C65.0294 7.2694 64.4176 8.6299 64.4176 10.1336C64.4176 10.4605 64.4113 13.9472 64.4238 13.9472C64.4238 15.4509 65.0356 16.8114 66.022 17.7952C66.9959 18.7665 68.7377 19.3673 70.2297 19.386H75.3801V16.3475H69.877C69.2121 16.3475 68.6097 16.0767 68.1758 15.6439C67.6951 15.1645 67.4703 14.5637 67.4703 13.8912H70.7604C72.3086 13.8881 73.5385 13.4647 74.4281 12.8141L74.4343 12.811ZM67.4703 10.1305C67.4703 9.46735 67.7388 8.86651 68.1758 8.43378C68.5785 8.03218 69.1216 7.77378 69.7272 7.73643H70.7697C71.6219 7.73643 72.2399 7.92634 72.6364 8.21587C72.9641 8.45559 73.1264 8.76378 73.1264 9.0533V9.52652C73.1264 9.81604 72.9641 10.1242 72.6364 10.3639C72.2399 10.6535 71.6219 10.8434 70.7697 10.8434H67.4797L67.4703 10.1305Z" fill="#1E2F3D"/>
<path d="M70.2978 19.3859C70.276 19.3859 70.2541 19.3859 70.2323 19.3828H69.8828H70.2978V19.3859Z" fill="#1E2F3D"/>
<path d="M59.766 12.811C60.921 11.9673 61.4953 10.7531 61.4953 9.52652V9.0533C61.4953 7.82359 60.9178 6.61254 59.766 5.76886C58.8764 5.1182 57.6497 4.69482 56.0983 4.69482H55.0558C53.6074 4.73218 52.3026 5.33299 51.3475 6.28563C50.3611 7.2694 49.7493 8.6299 49.7493 10.1336C49.7493 10.4605 49.743 13.9472 49.7586 13.9472C49.7586 15.4509 50.3704 16.8114 51.3568 17.7952C52.3307 18.7665 54.0725 19.3673 55.5646 19.386H60.715V16.3475H55.2118C54.547 16.3475 53.9445 16.0767 53.5106 15.6439C53.0299 15.1645 52.8052 14.5637 52.8052 13.8912H56.0952C57.6434 13.8881 58.8733 13.4647 59.7629 12.8141L59.766 12.811ZM52.8021 10.1305C52.8021 9.46735 53.0705 8.86651 53.5075 8.43378C53.9102 8.03218 54.4533 7.77378 55.0589 7.73643H56.1014C56.9567 7.73643 57.5716 7.92634 57.9681 8.21587C58.2958 8.45559 58.4581 8.76378 58.4581 9.0533V9.52652C58.4581 9.81604 58.2958 10.1242 57.9681 10.3639C57.5716 10.6535 56.9536 10.8434 56.1014 10.8434H52.8114L52.8021 10.1305Z" fill="#1E2F3D"/>
<path d="M55.6298 19.3859C55.608 19.3859 55.5862 19.3859 55.5643 19.3828H55.2148H55.6298V19.3859Z" fill="#1E2F3D"/>
<path fill-rule="evenodd" clip-rule="evenodd" d="M45.2432 6.63113C44.2475 5.63802 42.8709 5.02163 41.3476 5.02163H37.9983V0H34.7988V19.2209H41.3414C42.8616 19.2209 44.2381 18.6045 45.237 17.6114C46.2327 16.6183 46.8508 15.2454 46.8508 13.7261H46.8539V10.5133C46.8539 8.99715 46.239 7.62424 45.2401 6.62801L45.2432 6.63113ZM43.8011 13.7261C43.8011 14.4017 43.5264 15.015 43.0832 15.4602C42.643 15.8992 42.0375 16.1731 41.3664 16.1762H38.0014V8.06323H41.3508C42.0281 8.06323 42.643 8.34025 43.0894 8.78232C43.5327 9.2244 43.8105 9.83772 43.8105 10.5164V13.7292L43.8011 13.7261Z" fill="#1E2F3D"/>
<path d="M83.0664 23.7662V20.5098H83.7656V21.836H84.0497L85.086 20.5098H85.8632L84.5803 22.0477L85.91 23.763H85.0891L84.0497 22.3434H83.7656V23.763H83.0664V23.7662Z" fill="#1E2F3D"/>
<path d="M86.3963 23.8222H86.3026C86.2652 23.8222 86.234 23.8159 86.209 23.8097V23.1871C86.209 23.1871 86.2402 23.1902 86.2776 23.1902C86.3401 23.1902 86.3963 23.1809 86.4462 23.1591C86.4962 23.1373 86.5367 23.0937 86.5711 23.0252C86.6054 22.9598 86.6335 22.8602 86.6553 22.7326C86.6772 22.6049 86.6928 22.4337 86.7053 22.2251C86.7178 22.0166 86.7209 21.755 86.7209 21.4406V20.5098H89.0995V23.7662H88.4003V21.0919H87.3827V21.534C87.3827 21.9263 87.3702 22.2594 87.3421 22.5302C87.314 22.8011 87.2734 23.0221 87.2172 23.1933C87.1641 23.3645 87.0955 23.4953 87.0174 23.5825C86.9394 23.6727 86.8489 23.735 86.7428 23.7693C86.6366 23.8035 86.5211 23.8191 86.3931 23.8191L86.3963 23.8222Z" fill="#1E2F3D"/>
<path d="M89.8926 23.7662V20.5098H90.5915V23.7662H89.8926Z" fill="#1E2F3D"/>
<path d="M91.3848 23.7662V20.5098H92.084V21.8017H93.4824V20.5098H94.1816V23.7662H93.4824V22.3808H92.084V23.7662H91.3848Z" fill="#1E2F3D"/>
<path d="M94.9746 23.7662V20.5098H95.6736V23.7662H94.9746Z" fill="#1E2F3D"/>
<path d="M96.4648 23.7662V20.5098H97.164V21.8017H98.5625V20.5098H99.2617V23.7662H98.5625V22.3808H97.164V23.7662H96.4648Z" fill="#1E2F3D"/>
<path d="M100.012 23.7662V20.5098H102.155V21.0919H100.711V23.7662H100.012Z" fill="#1E2F3D"/>
</svg>
