<svg width="19" height="18" viewBox="0 0 19 18" fill="none" xmlns="http://www.w3.org/2000/svg">
<path d="M9.09948 14.3173L4.25948 17.24C4.11726 17.3102 3.98526 17.3387 3.86348 17.3253C3.74259 17.3111 3.62481 17.2693 3.51015 17.2C3.39459 17.1289 3.30748 17.0284 3.24881 16.8987C3.19015 16.7689 3.18481 16.6271 3.23281 16.4733L4.52081 10.9933L0.260813 7.3C0.140813 7.20222 0.0617016 7.08533 0.0234793 6.94933C-0.0147429 6.81333 -0.00629837 6.68311 0.0488127 6.55867C0.103924 6.43422 0.177257 6.332 0.268813 6.252C0.361257 6.17467 0.485702 6.12222 0.642146 6.09467L6.26348 5.604L8.45548 0.414667C8.51592 0.268 8.60304 0.162222 8.71681 0.0973333C8.83059 0.0324444 8.95815 0 9.09948 0C9.24081 0 9.36881 0.0324444 9.48348 0.0973333C9.59815 0.162222 9.68481 0.268 9.74348 0.414667L11.9355 5.604L17.5555 6.09467C17.7128 6.12133 17.8377 6.17422 17.9301 6.25333C18.0226 6.33156 18.0964 6.43333 18.1515 6.55867C18.2057 6.68311 18.2137 6.81333 18.1755 6.94933C18.1373 7.08533 18.0581 7.20222 17.9381 7.3L13.6781 10.9933L14.9661 16.4733C15.0159 16.6253 15.011 16.7667 14.9515 16.8973C14.8919 17.028 14.8044 17.1284 14.6888 17.1987C14.575 17.2698 14.4573 17.312 14.3355 17.3253C14.2146 17.3387 14.083 17.3102 13.9408 17.24L9.09948 14.3173Z" fill="#FFC700"/>
</svg>
