<svg width="29" height="29" viewBox="0 0 29 29" fill="none" xmlns="http://www.w3.org/2000/svg">
<path d="M14.4994 2.41675C7.82935 2.41675 2.41602 7.83008 2.41602 14.5001C2.41602 21.1701 7.82935 26.5834 14.4994 26.5834C21.1694 26.5834 26.5827 21.1701 26.5827 14.5001C26.5827 7.83008 21.1694 2.41675 14.4994 2.41675ZM20.106 10.6334C19.9248 12.5426 19.1394 17.1826 18.7406 19.3213C18.5714 20.2276 18.2331 20.5297 17.9189 20.5659C17.2181 20.6263 16.6864 20.1068 16.0098 19.6597C14.9464 18.9588 14.3423 18.5238 13.3152 17.8472C12.1189 17.0618 12.8923 16.6268 13.581 15.9259C13.7623 15.7447 16.8556 12.9292 16.916 12.6755C16.9244 12.6371 16.9233 12.5972 16.9128 12.5593C16.9022 12.5214 16.8826 12.4866 16.8556 12.458C16.7831 12.3976 16.6864 12.4218 16.6019 12.4338C16.4931 12.458 14.8014 13.5818 11.5027 15.8051C11.0194 16.1313 10.5844 16.3005 10.1977 16.2884C9.76268 16.2763 8.94102 16.0468 8.32477 15.8413C7.56352 15.5997 6.97143 15.4668 7.01977 15.0438C7.04393 14.8263 7.34602 14.6088 7.91393 14.3793C11.4423 12.8447 13.7864 11.8297 14.9585 11.3463C18.3177 9.94467 19.0064 9.703 19.4656 9.703C19.5623 9.703 19.7919 9.72717 19.9369 9.848C20.0577 9.94467 20.0939 10.0776 20.106 10.1743C20.0939 10.2467 20.1181 10.4643 20.106 10.6334Z" fill="#F9FAFB"/>
</svg>
