<svg width="20" height="20" viewBox="0 0 20 20" fill="none" xmlns="http://www.w3.org/2000/svg">
<path d="M10.0013 1.6665C5.4013 1.6665 1.66797 5.39984 1.66797 9.99984C1.66797 14.5998 5.4013 18.3332 10.0013 18.3332C14.6013 18.3332 18.3346 14.5998 18.3346 9.99984C18.3346 5.39984 14.6013 1.6665 10.0013 1.6665ZM13.868 7.33317C13.743 8.64984 13.2013 11.8498 12.9263 13.3248C12.8096 13.9498 12.5763 14.1582 12.3596 14.1832C11.8763 14.2248 11.5096 13.8665 11.043 13.5582C10.3096 13.0748 9.89297 12.7748 9.18464 12.3082C8.35964 11.7665 8.89297 11.4665 9.36797 10.9832C9.49297 10.8582 11.6263 8.9165 11.668 8.7415C11.6738 8.715 11.673 8.68748 11.6657 8.66134C11.6585 8.6352 11.6449 8.61123 11.6263 8.5915C11.5763 8.54984 11.5096 8.5665 11.4513 8.57484C11.3763 8.5915 10.2096 9.3665 7.93464 10.8998C7.6013 11.1248 7.3013 11.2415 7.03464 11.2332C6.73463 11.2248 6.16797 11.0665 5.74297 10.9248C5.21797 10.7582 4.80964 10.6665 4.84297 10.3748C4.85964 10.2248 5.06797 10.0748 5.45964 9.9165C7.89297 8.85817 9.50964 8.15817 10.318 7.82484C12.6346 6.85817 13.1096 6.6915 13.4263 6.6915C13.493 6.6915 13.6513 6.70817 13.7513 6.7915C13.8346 6.85817 13.8596 6.94984 13.868 7.0165C13.8596 7.0665 13.8763 7.2165 13.868 7.33317Z" fill="#1B2936"/>
</svg>
