<svg width="29" height="29" viewBox="0 0 29 29" fill="none" xmlns="http://www.w3.org/2000/svg">
<path fill-rule="evenodd" clip-rule="evenodd" d="M20.1497 3.17543C16.3481 2.32564 12.4057 2.32564 8.60409 3.17543L8.19446 3.26606C7.12482 3.5045 6.14234 4.03513 5.3564 4.79888C4.57047 5.56262 4.01193 6.52951 3.74296 7.59189C2.78099 11.3893 2.78099 15.3667 3.74296 19.1641C3.99949 20.1773 4.51965 21.1045 5.25057 21.8515C5.98149 22.5986 6.89713 23.1388 7.90446 23.4174L8.46634 26.7718C8.48427 26.8783 8.53044 26.978 8.60002 27.0606C8.6696 27.1433 8.76006 27.2057 8.86198 27.2415C8.96389 27.2773 9.07353 27.2851 9.17949 27.2641C9.28545 27.2431 9.38384 27.1941 9.46442 27.1222L12.7644 24.1702C15.2416 24.3198 17.7275 24.1217 20.1497 23.5818L20.5606 23.4911C21.6302 23.2527 22.6127 22.7221 23.3986 21.9583C24.1845 21.1946 24.7431 20.2277 25.0121 19.1653C25.974 15.3679 25.974 11.3905 25.0121 7.5931C24.743 6.53056 24.1843 5.56357 23.3981 4.79981C22.6119 4.03605 21.6292 3.50551 20.5593 3.26727L20.1497 3.17543ZM9.62392 7.49402C9.39934 7.46113 9.17028 7.50634 8.97505 7.6221H8.95813C8.505 7.88793 8.09659 8.22264 7.74859 8.61656C7.45859 8.95127 7.3015 9.2896 7.26042 9.61585C7.23625 9.80918 7.25317 10.0049 7.30996 10.1898L7.33171 10.2019C7.65796 11.1601 8.0833 12.0821 8.60288 12.9496C9.27314 14.168 10.0976 15.295 11.0558 16.3028L11.0848 16.3438L11.1307 16.3777L11.1585 16.4103L11.1923 16.4393C12.2037 17.4003 13.3333 18.2287 14.5539 18.9043C15.9496 19.6643 16.7966 20.0232 17.3053 20.1731V20.1803C17.4539 20.2262 17.5893 20.2468 17.7258 20.2468C18.1593 20.2157 18.5696 20.0394 18.8906 19.7465C19.2833 19.3985 19.6156 18.9889 19.8742 18.5333V18.5249C20.1171 18.0657 20.0349 17.6331 19.6845 17.3395C18.9812 16.7238 18.2201 16.1775 17.4116 15.7083C16.8703 15.4146 16.3205 15.5923 16.0982 15.8895L15.6233 16.4888C15.3792 16.7861 14.937 16.745 14.937 16.745L14.9249 16.7523C11.6249 15.9101 10.744 12.569 10.744 12.569C10.744 12.569 10.703 12.1147 11.0087 11.8827L11.6032 11.4042C11.8883 11.1722 12.0865 10.6236 11.7808 10.0823C11.3127 9.27441 10.7676 8.51365 10.1532 7.8106C10.0188 7.64551 9.83055 7.53301 9.6215 7.49281M15.1992 6.0416C15.0389 6.0416 14.8853 6.10525 14.772 6.21856C14.6587 6.33186 14.595 6.48553 14.595 6.64577C14.595 6.806 14.6587 6.95967 14.772 7.07298C14.8853 7.18628 15.0389 7.24993 15.1992 7.24993C16.7277 7.24993 17.9965 7.74897 19.0006 8.70597C19.5166 9.22918 19.9189 9.84906 20.1823 10.5281C20.447 11.2084 20.5678 11.9346 20.5364 12.6621C20.5331 12.7414 20.5454 12.8206 20.5727 12.8952C20.6 12.9698 20.6417 13.0382 20.6954 13.0967C20.8039 13.2148 20.9549 13.2849 21.1152 13.2916C21.2754 13.2983 21.4318 13.2411 21.5498 13.1326C21.6679 13.024 21.738 12.873 21.7447 12.7128C21.7808 11.8181 21.6323 10.9256 21.3085 10.0907C20.9832 9.25164 20.4879 8.48891 19.8537 7.85047L19.8416 7.83839C18.5958 6.64818 17.0189 6.0416 15.1992 6.0416ZM15.1581 8.0281C14.9979 8.0281 14.8442 8.09175 14.7309 8.20506C14.6176 8.31836 14.5539 8.47203 14.5539 8.63227C14.5539 8.7925 14.6176 8.94617 14.7309 9.05948C14.8442 9.17278 14.9979 9.23643 15.1581 9.23643H15.1786C16.2806 9.31497 17.083 9.68231 17.6448 10.2853C18.2212 10.9063 18.5197 11.6785 18.4967 12.6331C18.493 12.7933 18.5532 12.9484 18.6638 13.0643C18.7745 13.1802 18.9268 13.2474 19.087 13.2511C19.2472 13.2548 19.4024 13.1947 19.5183 13.084C19.6342 12.9733 19.7014 12.8211 19.7051 12.6608C19.7341 11.4078 19.3305 10.3263 18.5306 9.4636V9.46118C17.7125 8.58393 16.59 8.11993 15.2391 8.02931L15.2185 8.02689L15.1581 8.0281ZM15.1351 10.0521C15.0543 10.0449 14.9728 10.0542 14.8956 10.0792C14.8184 10.1042 14.747 10.1446 14.6858 10.1978C14.6245 10.2511 14.5746 10.3161 14.539 10.3891C14.5034 10.462 14.4829 10.5414 14.4787 10.6224C14.4745 10.7035 14.4866 10.7846 14.5144 10.8608C14.5422 10.9371 14.5851 11.007 14.6405 11.0663C14.6959 11.1256 14.7627 11.1732 14.8369 11.2061C14.9111 11.239 14.9911 11.2567 15.0723 11.258C15.5774 11.2846 15.9 11.4368 16.103 11.641C16.3072 11.8464 16.4595 12.1763 16.4873 12.6923C16.4888 12.7733 16.5066 12.8533 16.5396 12.9273C16.5727 13.0014 16.6203 13.068 16.6797 13.1233C16.739 13.1785 16.8089 13.2213 16.8851 13.2489C16.9614 13.2766 17.0424 13.2886 17.1234 13.2843C17.2043 13.28 17.2836 13.2595 17.3565 13.2239C17.4294 13.1883 17.4943 13.1384 17.5475 13.0772C17.6007 13.016 17.641 12.9447 17.666 12.8675C17.691 12.7904 17.7003 12.709 17.6932 12.6282C17.6545 11.9032 17.4273 11.2628 16.9621 10.7916C16.4945 10.3203 15.8577 10.0907 15.1351 10.0521Z" fill="#FDF9F9"/>
</svg>
