<svg width="20" height="20" viewBox="0 0 20 20" fill="none" xmlns="http://www.w3.org/2000/svg">
<path fill-rule="evenodd" clip-rule="evenodd" d="M13.8966 2.19004C11.2747 1.60397 8.55587 1.60397 5.93405 2.19004L5.65155 2.25254C4.91387 2.41698 4.23629 2.78293 3.69427 3.30966C3.15225 3.83638 2.76705 4.50319 2.58155 5.23587C1.91813 7.85479 1.91813 10.5978 2.58155 13.2167C2.75847 13.9154 3.1172 14.5549 3.62128 15.0701C4.12537 15.5853 4.75684 15.9579 5.45155 16.15L5.83905 18.4634C5.85142 18.5368 5.88326 18.6056 5.93125 18.6626C5.97924 18.7196 6.04162 18.7626 6.11191 18.7873C6.18219 18.812 6.25781 18.8174 6.33088 18.8029C6.40396 18.7884 6.47181 18.7546 6.52739 18.705L8.80322 16.6692C10.5116 16.7723 12.226 16.6357 13.8966 16.2634L14.1799 16.2009C14.9176 16.0364 15.5951 15.6705 16.1372 15.1438C16.6792 14.617 17.0644 13.9502 17.2499 13.2175C17.9133 10.5986 17.9133 7.85562 17.2499 5.2367C17.0643 4.50392 16.679 3.83703 16.1368 3.3103C15.5946 2.78357 14.9169 2.41768 14.1791 2.25337L13.8966 2.19004ZM6.63739 5.16837C6.48251 5.14569 6.32453 5.17687 6.18989 5.2567H6.17822C5.86572 5.44004 5.58405 5.67087 5.34405 5.94254C5.14405 6.17337 5.03572 6.4067 5.00739 6.6317C4.99072 6.76504 5.00239 6.90004 5.04155 7.02754L5.05655 7.03587C5.28155 7.6967 5.57489 8.33254 5.93322 8.93087C6.39547 9.77115 6.96404 10.5484 7.62489 11.2434L7.64489 11.2717L7.67655 11.295L7.69572 11.3175L7.71905 11.3375C8.41654 12.0003 9.19558 12.5716 10.0374 13.0375C10.9999 13.5617 11.5841 13.8092 11.9349 13.9125V13.9175C12.0374 13.9492 12.1307 13.9634 12.2249 13.9634C12.5238 13.9419 12.8068 13.8204 13.0282 13.6184C13.2991 13.3784 13.5282 13.0959 13.7066 12.7817V12.7759C13.8741 12.4592 13.8174 12.1609 13.5757 11.9584C13.0907 11.5337 12.5658 11.157 12.0082 10.8334C11.6349 10.6309 11.2557 10.7534 11.1024 10.9584L10.7749 11.3717C10.6066 11.5767 10.3016 11.5484 10.3016 11.5484L10.2932 11.5534C8.01739 10.9725 7.40989 8.66837 7.40989 8.66837C7.40989 8.66837 7.38155 8.35504 7.59239 8.19504L8.00239 7.86504C8.19905 7.70504 8.33572 7.3267 8.12489 6.95337C7.80203 6.39623 7.42612 5.87157 7.00239 5.3867C6.9097 5.27285 6.77989 5.19526 6.63572 5.16754M10.4824 4.1667C10.3719 4.1667 10.2659 4.2106 10.1878 4.28874C10.1096 4.36688 10.0657 4.47286 10.0657 4.58337C10.0657 4.69388 10.1096 4.79986 10.1878 4.878C10.2659 4.95614 10.3719 5.00004 10.4824 5.00004C11.5366 5.00004 12.4116 5.3442 13.1041 6.0042C13.4599 6.36504 13.7374 6.79254 13.9191 7.26087C14.1016 7.73004 14.1849 8.23087 14.1632 8.73254C14.1609 8.78726 14.1694 8.84189 14.1882 8.89332C14.2071 8.94475 14.2358 8.99197 14.2729 9.03229C14.3477 9.11371 14.4519 9.16206 14.5624 9.1667C14.6729 9.17135 14.7807 9.1319 14.8621 9.05704C14.9436 8.98218 14.9919 8.87804 14.9966 8.76754C15.0214 8.1505 14.919 7.53496 14.6957 6.9592C14.4714 6.38053 14.1298 5.85451 13.6924 5.4142L13.6841 5.40587C12.8249 4.58504 11.7374 4.1667 10.4824 4.1667ZM10.4541 5.5367C10.3435 5.5367 10.2376 5.5806 10.1594 5.65874C10.0813 5.73688 10.0374 5.84286 10.0374 5.95337C10.0374 6.06388 10.0813 6.16986 10.1594 6.248C10.2376 6.32614 10.3435 6.37004 10.4541 6.37004H10.4682C11.2282 6.4242 11.7816 6.67754 12.1691 7.09337C12.5666 7.5217 12.7724 8.0542 12.7566 8.71254C12.754 8.82304 12.7955 8.93004 12.8718 9.00997C12.9482 9.08991 13.0531 9.13625 13.1636 9.13879C13.2741 9.14133 13.3811 9.09987 13.4611 9.02353C13.541 8.94718 13.5873 8.84221 13.5899 8.7317C13.6099 7.86754 13.3316 7.1217 12.7799 6.5267V6.52504C12.2157 5.92004 11.4416 5.60004 10.5099 5.53754L10.4957 5.53587L10.4541 5.5367ZM10.4382 6.93254C10.3825 6.92762 10.3263 6.93398 10.273 6.95126C10.2198 6.96853 10.1706 6.99635 10.1283 7.03307C10.0861 7.06979 10.0516 7.11464 10.0271 7.16495C10.0026 7.21527 9.98841 7.27001 9.9855 7.32591C9.98258 7.38181 9.99096 7.43773 10.0101 7.49032C10.0293 7.54291 10.0589 7.5911 10.0971 7.63201C10.1353 7.67292 10.1814 7.70571 10.2325 7.72842C10.2837 7.75113 10.3389 7.7633 10.3949 7.7642C10.7432 7.78254 10.9657 7.88754 11.1057 8.02837C11.2466 8.17004 11.3516 8.39754 11.3707 8.75337C11.3718 8.80929 11.384 8.86442 11.4068 8.91549C11.4296 8.96656 11.4625 9.01251 11.5034 9.05062C11.5444 9.08872 11.5926 9.11819 11.6451 9.13728C11.6977 9.15636 11.7536 9.16467 11.8094 9.1617C11.8653 9.15874 11.9199 9.14456 11.9702 9.12001C12.0204 9.09547 12.0652 9.06106 12.1019 9.01883C12.1386 8.97661 12.1664 8.92743 12.1836 8.87424C12.2009 8.82104 12.2073 8.76492 12.2024 8.7092C12.1757 8.2092 12.0191 7.76754 11.6982 7.44254C11.3757 7.11754 10.9366 6.9592 10.4382 6.93254Z" fill="#1B2936"/>
</svg>
