<svg width="40" height="40" viewBox="0 0 40 40" fill="none" xmlns="http://www.w3.org/2000/svg">
<path fill-rule="evenodd" clip-rule="evenodd" d="M19.9987 3.3335C10.7937 3.3335 3.33203 10.7952 3.33203 20.0002C3.33203 23.1502 4.20703 26.1002 5.7287 28.6135L4.24203 33.6668C4.15667 33.957 4.15106 34.2647 4.22577 34.5578C4.30049 34.8509 4.45278 35.1184 4.66663 35.3322C4.88048 35.5461 5.148 35.6984 5.44106 35.7731C5.73412 35.8478 6.04189 35.8422 6.33203 35.7568L11.3854 34.2702C13.9833 35.8417 16.9624 36.6707 19.9987 36.6668C29.2037 36.6668 36.6654 29.2052 36.6654 20.0002C36.6654 10.7952 29.2037 3.3335 19.9987 3.3335ZM16.2287 23.7718C19.6004 27.1418 22.8187 27.5868 23.9554 27.6285C25.6837 27.6918 27.367 26.3718 28.022 24.8402C28.104 24.6495 28.1337 24.4404 28.1079 24.2344C28.0821 24.0284 28.0018 23.8331 27.8754 23.6685C26.962 22.5018 25.727 21.6635 24.5204 20.8302C24.2686 20.6556 23.9588 20.5854 23.6564 20.6345C23.3539 20.6837 23.0823 20.8482 22.8987 21.0935L21.8987 22.6185C21.8459 22.7002 21.7639 22.7587 21.6695 22.7822C21.5752 22.8057 21.4754 22.7925 21.3904 22.7452C20.712 22.3568 19.7237 21.6968 19.0137 20.9868C18.3037 20.2768 17.6837 19.3335 17.3354 18.6985C17.2932 18.6176 17.2813 18.5243 17.3018 18.4354C17.3223 18.3465 17.3738 18.2678 17.447 18.2135L18.987 17.0702C19.2074 16.8795 19.3497 16.6142 19.3866 16.3251C19.4236 16.036 19.3525 15.7434 19.187 15.5035C18.4404 14.4102 17.5704 13.0202 16.3087 12.0985C16.1455 11.9813 15.9548 11.9082 15.7551 11.8863C15.5554 11.8644 15.3534 11.8944 15.1687 11.9735C13.6354 12.6302 12.3087 14.3135 12.372 16.0452C12.4137 17.1818 12.8587 20.4002 16.2287 23.7718Z" fill="#1B2936"/>
</svg>
