<svg width="29" height="29" viewBox="0 0 29 29" fill="none" xmlns="http://www.w3.org/2000/svg">
<path fill-rule="evenodd" clip-rule="evenodd" d="M14.4994 2.41675C7.82573 2.41675 2.41602 7.82646 2.41602 14.5001C2.41602 16.7838 3.05039 18.9226 4.1536 20.7447L3.07577 24.4084C3.01388 24.6188 3.00981 24.8419 3.06398 25.0544C3.11815 25.2668 3.22856 25.4608 3.3836 25.6158C3.53864 25.7709 3.73259 25.8813 3.94506 25.9355C4.15753 25.9896 4.38067 25.9856 4.59102 25.9237L8.25468 24.8458C10.1382 25.9852 12.2981 26.5862 14.4994 26.5834C21.173 26.5834 26.5827 21.1737 26.5827 14.5001C26.5827 7.82646 21.173 2.41675 14.4994 2.41675ZM11.7661 17.2345C14.2106 19.6778 16.5439 20.0004 17.3679 20.0306C18.621 20.0765 19.8414 19.1195 20.3163 18.0091C20.3757 17.8708 20.3972 17.7192 20.3785 17.5699C20.3598 17.4206 20.3016 17.279 20.2099 17.1596C19.5478 16.3138 18.6524 15.706 17.7776 15.1018C17.595 14.9752 17.3705 14.9244 17.1512 14.96C16.9319 14.9956 16.735 15.1149 16.6019 15.2928L15.8769 16.3984C15.8385 16.4576 15.7791 16.5 15.7107 16.5171C15.6423 16.5341 15.5699 16.5245 15.5083 16.4902C15.0165 16.2087 14.3 15.7302 13.7852 15.2154C13.2705 14.7007 12.821 14.0167 12.5684 13.5564C12.5379 13.4977 12.5293 13.4301 12.5441 13.3656C12.5589 13.3012 12.5963 13.2441 12.6494 13.2048L13.7659 12.3758C13.9257 12.2376 14.0289 12.0452 14.0556 11.8356C14.0824 11.6261 14.0308 11.414 13.9109 11.24C13.3696 10.4473 12.7388 9.43958 11.8241 8.77137C11.7058 8.68638 11.5676 8.63337 11.4228 8.6175C11.278 8.60162 11.1315 8.62341 10.9976 8.68075C9.88593 9.15683 8.9241 10.3772 8.97002 11.6327C9.00023 12.4568 9.32285 14.7901 11.7661 17.2345Z" fill="#F9FAFB"/>
</svg>
