<svg width="89" height="89" viewBox="0 0 89 89" fill="none" xmlns="http://www.w3.org/2000/svg">
<path d="M46.625 67.4053L53.9404 65.0693L48.9609 60.0898L46.625 67.4053ZM81.1875 27.6865C80.8744 27.6643 80.5631 27.6887 80.3291 27.749L80.3223 27.75C80.2392 27.7732 80.1087 27.8533 79.9463 27.9805C79.7844 28.1072 79.647 28.2323 79.5137 28.3428L50.4199 57.4482L56.582 63.6104L81.5527 38.6396C81.5386 38.6227 81.5247 38.6023 81.5068 38.582C81.4003 38.4609 81.2439 38.2999 81.0498 38.1084C80.6622 37.726 80.1387 37.2368 79.5957 36.7295C79.0542 36.2236 78.4932 35.7 78.0361 35.2529C77.8076 35.0293 77.6029 34.8222 77.4385 34.6455C77.2776 34.4726 77.1437 34.3168 77.0664 34.1963C76.7652 33.7261 76.7409 33.1776 76.9443 32.7373C77.1496 32.293 77.583 31.9691 78.1592 31.9521H78.1602C78.3648 31.9462 78.5828 32.0357 78.7861 32.1514C78.9971 32.2715 79.228 32.4414 79.4688 32.6406C79.9512 33.04 80.4982 33.5794 81.0371 34.1367C81.5744 34.6924 82.1187 35.2817 82.5811 35.7666C82.9497 36.1532 83.2643 36.4701 83.498 36.6748C83.7881 36.3564 84.144 36.032 84.498 35.71C84.9292 35.3179 85.3609 34.9216 85.707 34.5049C86.0536 34.0876 86.2968 33.6702 86.373 33.2432C86.4473 32.8271 86.3684 32.3742 86.0156 31.8652C85.9942 31.8343 85.9223 31.7504 85.7959 31.6133C85.6747 31.4818 85.5149 31.3131 85.3281 31.1201C84.9548 30.7344 84.4777 30.254 84 29.7803C83.5223 29.3066 83.0448 28.8404 82.6689 28.4844C82.4808 28.3062 82.3188 28.1568 82.1963 28.0479C82.1352 27.9935 82.0856 27.9506 82.0479 27.9199L82 27.8818C81.795 27.7765 81.5024 27.7089 81.1875 27.6865ZM4.77539 19.0449H15.3828C15.6647 19.0449 16.0367 18.9235 16.4521 18.6934C16.8622 18.4662 17.2915 18.1461 17.6816 17.7803C18.0719 17.4143 18.4167 17.0081 18.6621 16.6133C18.9106 16.2133 19.043 15.8481 19.043 15.5586V4.77539L4.77539 19.0449ZM89.2451 33.8867C89.2491 33.9938 89.2217 34.1068 89.1875 34.207C89.1519 34.3116 89.1011 34.4249 89.0439 34.5391C88.9297 34.7673 88.7782 35.02 88.6299 35.2549C88.4818 35.4894 88.3301 35.7166 88.2217 35.8838C88.173 35.9588 88.1331 36.0206 88.1045 36.0684C88.107 36.0721 88.1096 36.076 88.1123 36.0801C88.1559 36.1445 88.2159 36.226 88.2852 36.3193C88.3525 36.4101 88.4266 36.5106 88.4912 36.6055C88.5535 36.6971 88.6171 36.7982 88.6553 36.8887V36.8896C89.3907 38.6436 89.2469 40.5155 88.0645 42.0498L88.0547 42.0625L88.043 42.0742L76.6445 53.4473L76.6318 53.46L76.6172 53.4707C75.9586 53.9608 75.2171 53.8621 74.748 53.4365C74.2803 53.0121 74.1052 52.2824 74.5137 51.5781L74.5303 51.5498L74.5537 51.5264L86.0127 40.0869C86.2112 39.7718 86.3359 39.3507 86.3369 38.9404C86.3377 38.6166 86.2619 38.3205 86.1084 38.0908L67.6016 56.5996L67.4639 82.7803V82.7998L67.4609 82.8184C66.9438 86.0885 64.4737 88.6325 61.2246 89.2432L61.2012 89.248H6.05664L6.0293 89.2412C2.79225 88.5178 0.481583 86.2144 -0.244141 82.9678L-0.25 82.9414V20.0605L20.0605 -0.25H61.2139L61.2402 -0.244141C64.5987 0.474038 67.2488 3.14668 67.5273 6.66699L67.5791 7.45898C67.6774 9.31883 67.6259 11.2529 67.5605 13.1807C67.4857 15.3884 67.3934 17.5868 67.4844 19.6826L67.4873 19.749L67.4561 19.8086C67.1377 20.4231 66.524 20.6973 65.958 20.627C65.3843 20.5555 64.873 20.1312 64.7734 19.4082L64.7725 19.3994L64.7715 19.3916C64.629 17.3523 64.7148 15.208 64.792 13.0889C64.8694 10.9639 64.9387 8.86266 64.7676 6.88379C64.6815 5.88646 64.1582 4.78612 63.3809 3.93457C62.6028 3.0823 61.6011 2.51179 60.5781 2.51172H21.9785V15.2139C21.9784 15.8752 21.7534 16.6155 21.3926 17.3438C21.0302 18.0751 20.5228 18.8111 19.9375 19.4668C19.3523 20.1223 18.6833 20.7043 17.9961 21.124C17.3115 21.542 16.5909 21.8096 15.9062 21.8096H2.62305L2.50977 21.9229V82.3115C2.50996 83.3018 3.18222 84.3987 4.16113 85.2373C5.13882 86.0748 6.35372 86.5952 7.35645 86.5029L7.36816 86.502H7.37988L60.2275 86.4902H60.2363L60.2461 86.4912C61.0989 86.5515 62.2314 86.0442 63.1689 85.2588C63.6322 84.8707 64.0341 84.4253 64.3184 83.9707C64.6037 83.5143 64.7616 83.0636 64.7617 82.6592V59.5273L57.3506 66.8311L57.3057 66.876L57.2432 66.8936C55.294 67.4431 53.322 68.1821 51.3369 68.9131C49.356 69.6425 47.3626 70.3633 45.3887 70.8652C45.0515 70.951 44.7257 71.0089 44.4297 71.0166C44.1351 71.0242 43.8508 70.9826 43.6123 70.8516C43.0976 70.5687 42.9374 69.9661 43.0781 69.1016C43.3857 67.201 44.2245 64.9877 45.0986 62.7949C45.978 60.589 46.8938 58.403 47.3848 56.5195L47.4014 56.4531L47.4502 56.4053L77.6055 26.2432L77.6143 26.2344L77.916 25.9795C79.4635 24.7673 81.5834 24.4702 83.3682 25.4326C83.6214 25.5692 84.0547 25.9294 84.5479 26.3779C85.0505 26.8352 85.6405 27.4077 86.2158 27.9922C86.7912 28.5767 87.3547 29.1753 87.8037 29.6855C88.2438 30.1856 88.5967 30.6255 88.7285 30.8828L88.8037 31.0518C88.8696 31.2235 88.9115 31.3989 88.9512 31.5342C89.0088 31.7307 89.0675 31.8745 89.1738 31.9834L89.2451 32.0566V33.8867Z" fill="#F9FAFB" stroke="#F9FAFB" stroke-width="0.5"/>
<path d="M48.1562 42.8101C50.0424 42.9261 50.04 46.0702 48.1562 46.1831L26.0635 46.1899C24.5316 45.9423 24.3108 43.5688 25.7598 42.8618L48.1562 42.8101Z" fill="#F9FAFB"/>
<path d="M48.1562 42.8101C50.0424 42.9261 50.04 46.0702 48.1562 46.1831L26.0635 46.1899C24.5316 45.9423 24.3108 43.5688 25.7598 42.8618L48.1562 42.8101Z" stroke="#F9FAFB"/>
<path d="M25.7805 56.3831L41.464 56.3291C43.2558 56.5991 43.2628 59.2184 41.464 59.4885C36.609 58.9514 30.8357 60.1875 26.0937 59.4885C24.5256 59.2574 24.2995 57.0402 25.7829 56.3801L25.7805 56.3831Z" fill="#F9FAFB"/>
<path d="M25.5705 67.5947L37.7459 67.6718C38.7522 68.9947 38.3367 70.5989 36.9911 70.8066C33.5496 71.3357 29.5421 70.408 26.0378 70.8133C24.7641 70.6927 24.2204 68.2947 25.5728 67.5947H25.5705Z" fill="#F9FAFB"/>
<path d="M20.5381 64.2046C21.2342 64.0608 21.8717 64.2807 22.25 64.7729C22.6241 65.2597 22.6816 65.93 22.4014 66.561L22.3516 66.6733L22.2549 66.7495C22.0156 66.9399 21.6713 67.2921 21.2529 67.7495C20.8383 68.2029 20.3835 68.7238 19.915 69.2466C19.4522 69.7631 18.9803 70.2758 18.5547 70.689C18.1491 71.0827 17.7222 71.4501 17.3535 71.6001C16.6593 71.8823 15.6921 71.8719 15.0029 71.5171C14.9024 71.4653 14.7888 71.3706 14.7061 71.2993C14.6064 71.2134 14.487 71.1028 14.3564 70.979C14.0946 70.7307 13.7768 70.4143 13.4678 70.0952C13.159 69.7764 12.8542 69.45 12.6191 69.1821C12.5023 69.049 12.3982 68.9255 12.3184 68.8218C12.2787 68.7703 12.2408 68.7178 12.209 68.6685C12.1843 68.6302 12.1357 68.5537 12.1084 68.4634L12.1094 68.4624C11.9409 67.9086 12.0923 67.3431 12.4033 66.936C12.7152 66.5278 13.2259 66.2304 13.8193 66.2837H13.8203C14.1657 66.3143 14.473 66.4722 14.7285 66.6519C14.9867 66.8334 15.2291 67.0644 15.4473 67.2905C15.6611 67.5122 15.882 67.7624 16.0645 67.9595C16.1389 68.0399 16.2102 68.1116 16.2754 68.1772C16.3619 68.0923 16.4661 67.989 16.583 67.8667C16.9398 67.4934 17.3857 67.0037 17.8691 66.4888C18.345 65.9818 18.8486 65.4596 19.291 65.0503C19.5118 64.8461 19.7259 64.6617 19.9199 64.52C20.096 64.3914 20.3161 64.2522 20.5381 64.2056V64.2046Z" fill="#F9FAFB" stroke="#F9FAFB"/>
<path d="M20.7334 50.4656C21.3685 50.3664 21.9404 50.751 22.2598 51.1882C22.5853 51.6339 22.7767 52.3115 22.416 52.9216L22.3594 53.0173L22.2676 53.0798C22.0267 53.2445 21.6628 53.5952 21.208 54.0759C20.7619 54.5475 20.2664 55.1038 19.7617 55.6589C19.2621 56.2085 18.7543 56.7555 18.3018 57.1882C18.0755 57.4045 17.8558 57.5998 17.6514 57.7546C17.455 57.9034 17.2384 58.0422 17.0225 58.1111V58.1101C16.1126 58.4013 15.194 57.9758 14.4932 57.4773C13.7691 56.9622 13.1356 56.2697 12.7324 55.7654C12.4734 55.4416 12.1286 55.0125 12.0293 54.5427C11.9743 54.2824 11.9915 54.0041 12.1211 53.7292C12.2461 53.4641 12.4589 53.2379 12.7344 53.0388H12.7354C13.2488 52.6681 13.7708 52.6159 14.2529 52.7976C14.6872 52.9613 15.044 53.2993 15.3203 53.5955C15.4624 53.7477 15.6003 53.9085 15.7217 54.0476C15.8474 54.1917 15.9568 54.3141 16.0586 54.4128C16.1618 54.5129 16.2348 54.5653 16.2822 54.5896C16.3087 54.5727 16.3587 54.5393 16.4346 54.4763C16.5622 54.3704 16.7196 54.2203 16.9033 54.033C17.2716 53.6573 17.7069 53.1712 18.1621 52.6707C18.6107 52.1773 19.078 51.6704 19.4941 51.2771C19.6632 51.1173 19.8316 50.9705 19.9912 50.8474L19.7617 50.6169L20.7334 50.4656Z" fill="#F9FAFB" stroke="#F9FAFB"/>
<path d="M20.4238 38.646C21.6886 38.5316 22.5361 39.8971 22.0596 41.0015H22.0586C21.8961 41.3766 21.5372 41.7982 21.1465 42.2007C20.7407 42.6187 20.2425 43.074 19.7422 43.52C19.2357 43.9715 18.7322 44.4096 18.291 44.813C17.8461 45.2198 17.499 45.5611 17.3018 45.811L17.2373 45.8911L17.1475 45.9409C16.4729 46.3065 15.8481 46.2369 15.3105 45.9868C14.9382 45.8136 14.5933 45.5452 14.2959 45.2974L14.0146 45.061C13.5946 44.7076 12.809 44.0188 12.3701 43.2886C12.1528 42.9269 11.9683 42.4716 12.0479 42.0005C12.1347 41.4871 12.5037 41.1098 13.0566 40.8687L13.2207 40.8062C14.0317 40.5437 14.6909 41.0012 15.1436 41.4302C15.3903 41.6641 15.6265 41.9366 15.8281 42.1616C15.9214 42.2657 16.0082 42.3591 16.0889 42.4419C16.2529 42.2882 16.449 42.0907 16.6709 41.856C16.8563 41.6598 17.0528 41.447 17.2578 41.2251C17.4621 41.0039 17.6746 40.7743 17.8877 40.5493C18.3113 40.1021 18.7511 39.6588 19.1582 39.3188C19.3619 39.1488 19.5683 38.9956 19.7686 38.8794C19.9622 38.7671 20.1876 38.6674 20.4238 38.646Z" fill="#F9FAFB" stroke="#F9FAFB"/>
</svg>
